<svg width="39" height="37" viewBox="0 0 39 37" fill="none" xmlns="http://www.w3.org/2000/svg">
<g id="notification-bell 1" clip-path="url(#clip0_21_95)">
<g id="Group">
<g id="Group_2">
<g id="Group_3">
<path id="Vector" d="M36.3304 30.2442C32.1859 28.4685 32.0282 20.8466 32.0252 20.6543V15.5409C32.0252 10.6195 28.8553 6.38765 24.3509 4.58577C24.3412 2.05556 22.169 0 19.5001 0C16.8311 0 14.659 2.05568 14.6492 4.58565C10.145 6.38753 6.97507 10.6194 6.97507 15.5408V20.6541C6.97214 20.8465 6.81436 28.4683 2.66971 30.244C2.19756 30.4464 1.93807 30.934 2.04724 31.4145C2.15627 31.8951 2.6042 32.2383 3.12235 32.2383H13.6294C13.8448 33.3624 14.4051 34.4082 15.262 35.2553C16.4002 36.3803 17.9053 36.9999 19.4999 36.9999C21.0946 36.9999 22.5998 36.3803 23.7378 35.2553C24.5948 34.4082 25.1551 33.3623 25.3704 32.2383H35.8774C36.3956 32.2383 36.8434 31.8951 36.9526 31.4145C37.0619 30.934 36.8025 30.4465 36.3304 30.2442ZM30.8708 26.5928C31.3065 27.846 31.9235 29.1045 32.7983 30.1517H6.20176C7.07646 29.1046 7.69339 27.8462 8.12908 26.5928H30.8708ZM19.5001 2.08669C20.7074 2.08669 21.7281 2.85632 22.0475 3.90538C21.2247 3.74347 20.3727 3.65811 19.5001 3.65811C18.6275 3.65811 17.7755 3.74341 16.9527 3.90538C17.2721 2.85638 18.2929 2.08669 19.5001 2.08669ZM9.17456 20.6605V15.5407C9.17456 10.1392 13.8065 5.7448 19.5001 5.7448C25.1936 5.7448 29.8256 10.1392 29.8256 15.5407V20.6691C29.8271 20.826 29.8528 22.4755 30.291 24.506H8.70892C9.14735 22.4735 9.17322 20.8212 9.17456 20.6605ZM19.5001 34.9134C17.8215 34.9134 16.3565 33.7652 15.8863 32.2384H23.1138C22.6435 33.7652 21.1788 34.9134 19.5001 34.9134Z" fill="white" fill-opacity="0.76"/>
<path id="Vector_2" d="M19.5 7.20862C14.7684 7.20862 10.9189 10.8606 10.9189 15.3495C10.9189 15.9257 11.4114 16.3929 12.0187 16.3929C12.6261 16.3929 13.1185 15.9257 13.1185 15.3495C13.1185 12.0112 15.9812 9.29531 19.5001 9.29531C20.1075 9.29531 20.5999 8.82816 20.5999 8.25194C20.5998 7.67565 20.1074 7.20862 19.5 7.20862Z" fill="white" fill-opacity="0.76"/>
</g>
</g>
</g>
<g id="Ellipse 3" filter="url(#filter0_b_21_95)">
<ellipse cx="32.37" cy="7.23913" rx="6.63" ry="7.23913" fill="#FF6A6A"/>
</g>
</g>
<defs>
<filter id="filter0_b_21_95" x="21.74" y="-4" width="21.26" height="22.4783" filterUnits="userSpaceOnUse" color-interpolation-filters="sRGB">
<feFlood flood-opacity="0" result="BackgroundImageFix"/>
<feGaussianBlur in="BackgroundImageFix" stdDeviation="2"/>
<feComposite in2="SourceAlpha" operator="in" result="effect1_backgroundBlur_21_95"/>
<feBlend mode="normal" in="SourceGraphic" in2="effect1_backgroundBlur_21_95" result="shape"/>
</filter>
<clipPath id="clip0_21_95">
<rect width="39" height="37" fill="white"/>
</clipPath>
</defs>
</svg>
